<svg xmlns="http://www.w3.org/2000/svg" xmlns:xlink="http://www.w3.org/1999/xlink" width="640" zoomAndPan="magnify" viewBox="0 0 480 479.999983" height="640" preserveAspectRatio="xMidYMid meet" version="1.0"><defs><clipPath id="22d499b8c7"><path d="M 157 106 L 391 106 L 391 421 L 157 421 Z M 157 106 " clip-rule="nonzero"/></clipPath><clipPath id="4939e943af"><path d="M 15.695312 152.890625 L 316.285156 11.398438 L 464.757812 326.8125 L 164.167969 468.304688 Z M 15.695312 152.890625 " clip-rule="nonzero"/></clipPath><clipPath id="f0eb3d5f2d"><path d="M 15.695312 152.890625 L 316.285156 11.398438 L 464.757812 326.8125 L 164.167969 468.304688 Z M 15.695312 152.890625 " clip-rule="nonzero"/></clipPath><clipPath id="42fba7d318"><path d="M 48.449219 173.015625 L 329.480469 40.726562 L 464.261719 327.058594 L 183.230469 459.347656 Z M 48.449219 173.015625 " clip-rule="nonzero"/></clipPath><clipPath id="08d101db51"><path d="M 124 144 L 158 144 L 158 411 L 124 411 Z M 124 144 " clip-rule="nonzero"/></clipPath><clipPath id="32f9a3a039"><path d="M 15.695312 152.890625 L 316.285156 11.398438 L 464.757812 326.8125 L 164.167969 468.304688 Z M 15.695312 152.890625 " clip-rule="nonzero"/></clipPath><clipPath id="fada209adf"><path d="M 15.695312 152.890625 L 316.285156 11.398438 L 464.757812 326.8125 L 164.167969 468.304688 Z M 15.695312 152.890625 " clip-rule="nonzero"/></clipPath><clipPath id="37fca9b517"><path d="M 99 142 L 147 142 L 147 343 L 99 343 Z M 99 142 " clip-rule="nonzero"/></clipPath><clipPath id="44f88f22aa"><path d="M 15.695312 152.890625 L 316.285156 11.398438 L 464.757812 326.8125 L 164.167969 468.304688 Z M 15.695312 152.890625 " clip-rule="nonzero"/></clipPath><clipPath id="bf66340a49"><path d="M 15.695312 152.890625 L 316.285156 11.398438 L 464.757812 326.8125 L 164.167969 468.304688 Z M 15.695312 152.890625 " clip-rule="nonzero"/></clipPath><clipPath id="8e91594f65"><path d="M 192 59 L 310 59 L 310 118 L 192 118 Z M 192 59 " clip-rule="nonzero"/></clipPath><clipPath id="d603423a72"><path d="M 15.695312 152.890625 L 316.285156 11.398438 L 464.757812 326.8125 L 164.167969 468.304688 Z M 15.695312 152.890625 " clip-rule="nonzero"/></clipPath><clipPath id="6f0c345bb7"><path d="M 15.695312 152.890625 L 316.285156 11.398438 L 464.757812 326.8125 L 164.167969 468.304688 Z M 15.695312 152.890625 " clip-rule="nonzero"/></clipPath><clipPath id="9d33c8ea0d"><path d="M 196.335938 182 L 330 182 L 330 327 L 196.335938 327 Z M 196.335938 182 " clip-rule="nonzero"/></clipPath><clipPath id="4cc88ab49c"><path d="M 231 168.96875 L 357.230469 168.96875 L 357.230469 340.296875 L 231 340.296875 Z M 231 168.96875 " clip-rule="nonzero"/></clipPath></defs><g clip-path="url(#22d499b8c7)"><g clip-path="url(#4939e943af)"><g clip-path="url(#f0eb3d5f2d)"><g clip-path="url(#42fba7d318)"><path fill="#0a223d" d="M 361 107.6875 L 360.40625 106.515625 C 352.3125 109.363281 343.878906 111.550781 335.425781 113.460938 C 301.503906 121.058594 266.503906 124.082031 231.792969 124.714844 C 222.269531 124.824219 210.601562 124.804688 201.117188 124.425781 C 189.53125 124.160156 176.691406 123.269531 165.15625 122.5 L 157.582031 121.757812 L 164.160156 405.453125 L 164.421875 408.933594 L 164.476562 409.671875 L 165.292969 420.527344 C 169.328125 418.8125 174.433594 416.761719 178.503906 415.21875 C 186.90625 412.035156 196.261719 408.75 204.824219 405.910156 C 235.855469 395.636719 276.019531 385.273438 307.914062 377.941406 C 335.015625 371.589844 363.257812 366.269531 390.710938 361.679688 C 381.386719 362.730469 372.039062 363.675781 362.710938 364.808594 C 334.960938 368.222656 306.546875 372.605469 279.113281 377.851562 C 247.542969 384.109375 212.914062 390.070312 181.199219 399.242188 L 172.621094 136.292969 C 192.398438 136.511719 212.632812 136.167969 232.21875 134.789062 C 267.328125 132.261719 303 130.617188 336.917969 121.082031 C 344.480469 118.9375 351.9375 116.613281 359.320312 113.699219 C 360.597656 116 385.320312 160.53125 385.320312 160.53125 L 361 107.6875 " fill-opacity="1" fill-rule="nonzero"/></g></g></g></g><g clip-path="url(#08d101db51)"><g clip-path="url(#32f9a3a039)"><g clip-path="url(#fada209adf)"><path fill="#0a223d" d="M 125.363281 375.949219 L 124.6875 384.433594 L 157.085938 410.703125 L 152.074219 144.847656 L 125.363281 375.949219 " fill-opacity="1" fill-rule="nonzero"/></g></g></g><g clip-path="url(#37fca9b517)"><g clip-path="url(#44f88f22aa)"><g clip-path="url(#bf66340a49)"><path fill="#0a223d" d="M 146.453125 142.824219 L 99.621094 329.710938 L 120.726562 342.375 Z M 146.453125 142.824219 " fill-opacity="1" fill-rule="nonzero"/></g></g></g><g clip-path="url(#8e91594f65)"><g clip-path="url(#d603423a72)"><g clip-path="url(#6f0c345bb7)"><path fill="#0a223d" d="M 233.902344 68.1875 C 236.898438 68.058594 240.625 69.226562 244.929688 72.8125 C 233.078125 87.785156 226.085938 110.640625 225.050781 114.214844 L 234.570312 113.96875 C 236.972656 105.691406 242.476562 89.34375 250.3125 78.300781 C 256.441406 85.65625 263.429688 97.796875 270.96875 117.195312 L 276.902344 114.96875 C 269.5625 96.074219 262.28125 81.964844 254.804688 72.886719 C 258.226562 69.457031 261.992188 67.238281 266.054688 67.0625 C 274.105469 66.707031 287.445312 75.710938 303.121094 116.066406 L 309.054688 113.839844 C 295 77.660156 281.167969 58.992188 265.726562 59.675781 C 259.800781 59.9375 254.449219 62.984375 249.710938 67.515625 C 244.484375 62.832031 239.132812 60.558594 233.574219 60.804688 C 209.207031 61.878906 194.445312 110.015625 192.902344 115.34375 L 202.417969 115.097656 C 206.210938 102.042969 217.703125 68.898438 233.902344 68.1875 " fill-opacity="1" fill-rule="nonzero"/></g></g></g><g clip-path="url(#9d33c8ea0d)"><path fill="#000000" d="M 268.601562 182.3125 C 294.171875 182.3125 316.644531 195.601562 329.492188 215.644531 C 318.480469 202.734375 302.09375 194.542969 283.796875 194.542969 C 250.644531 194.542969 223.761719 221.425781 223.761719 254.578125 C 223.761719 287.726562 250.644531 314.613281 283.796875 314.613281 C 302.09375 314.613281 318.480469 306.421875 329.492188 293.507812 C 316.644531 313.554688 294.171875 326.84375 268.601562 326.84375 C 228.699219 326.84375 196.339844 294.480469 196.339844 254.578125 C 196.339844 214.671875 228.699219 182.3125 268.601562 182.3125 Z M 268.601562 182.3125 " fill-opacity="1" fill-rule="evenodd"/></g><g clip-path="url(#4cc88ab49c)"><path fill="#d10009" d="M 281.203125 168.96875 C 314.316406 168.96875 343.039062 187.78125 357.277344 215.292969 L 337.082031 215.292969 C 323.457031 191.601562 297.890625 175.640625 268.601562 175.640625 C 255.152344 175.640625 242.488281 179.011719 231.402344 184.949219 C 245.433594 174.894531 262.628906 168.96875 281.203125 168.96875 Z M 357.277344 293.859375 C 343.039062 321.375 314.316406 340.183594 281.203125 340.183594 C 262.628906 340.183594 245.433594 334.261719 231.402344 324.207031 C 242.488281 330.140625 255.152344 333.511719 268.601562 333.511719 C 297.890625 333.511719 323.457031 317.554688 337.082031 293.859375 Z M 357.277344 293.859375 " fill-opacity="1" fill-rule="evenodd"/></g></svg>